<?xml version="1.0" encoding="UTF-8" standalone="no"?>
<svg
   xmlns:dc="http://purl.org/dc/elements/1.1/"
   xmlns:cc="http://creativecommons.org/ns#"
   xmlns:rdf="http://www.w3.org/1999/02/22-rdf-syntax-ns#"
   xmlns:svg="http://www.w3.org/2000/svg"
   xmlns="http://www.w3.org/2000/svg"
   xmlns:sodipodi="http://sodipodi.sourceforge.net/DTD/sodipodi-0.dtd"
   xmlns:inkscape="http://www.inkscape.org/namespaces/inkscape"
   version="1.1"
   id="svg2"
   xml:space="preserve"
   width="39.4468"
   height="69.580002"
   viewBox="0 0 39.4468 69.580002"
   sodipodi:docname="sem.ai"><metadata
     id="metadata8"><rdf:RDF><cc:Work
         rdf:about=""><dc:format>image/svg+xml</dc:format><dc:type
           rdf:resource="http://purl.org/dc/dcmitype/StillImage" /></cc:Work></rdf:RDF></metadata><defs
     id="defs6"><clipPath
       clipPathUnits="userSpaceOnUse"
       id="clipPath18"><path
         d="M 0,52.185 H 29.585 V 0 H 0 Z"
         id="path16" /></clipPath></defs><sodipodi:namedview
     pagecolor="#ffffff"
     bordercolor="#666666"
     borderopacity="1"
     objecttolerance="10"
     gridtolerance="10"
     guidetolerance="10"
     inkscape:pageopacity="0"
     inkscape:pageshadow="2"
     inkscape:window-width="640"
     inkscape:window-height="480"
     id="namedview4" /><g
     id="g10"
     inkscape:groupmode="layer"
     inkscape:label="sem"
     transform="matrix(1.3333333,0,0,-1.3333333,0,69.58)"><g
       id="g12"><g
         id="g14"
         clip-path="url(#clipPath18)"><g
           id="g20"
           transform="translate(1.3252,18.6945)"><path
             d="m 0,0 c 0.055,-1.187 0.037,-2.273 0.171,-3.341 0.16,-1.265 0.381,-2.53 0.694,-3.766 1.473,-5.825 5.047,-9.78 11.261,-10.226 3.8,-0.273 7.355,0.372 10.199,3.157 2.891,2.831 3.982,6.471 4.427,10.357 0.62,5.403 -0.134,10.67 -1.692,15.844 -2.075,6.892 -5.305,13.158 -10.124,18.554 -1.201,1.345 -1.657,1.288 -2.859,-0.009 C 9.337,27.616 7.177,24.298 5.381,20.696 2.11,14.133 0.214,7.239 0,0 m 28.26,-2.165 c 0.002,-1.941 -0.503,-5.6 -2.19,-9.009 -2.239,-4.525 -5.873,-7.053 -10.925,-7.445 -3.202,-0.248 -6.315,0.058 -9.139,1.782 -3.813,2.328 -5.654,5.946 -6.603,10.141 -1.53,6.769 -0.469,13.35 1.52,19.841 2.27,7.408 6.095,13.935 11.371,19.609 0.95,1.02 1.493,0.987 2.57,-0.141 4.304,-4.506 7.498,-9.722 9.819,-15.482 2.258,-5.604 3.586,-11.408 3.577,-19.296"
             style="fill:#000000;fill-opacity:1;fill-rule:nonzero;stroke:none"
             id="path22" /></g><g
           id="g24"
           transform="translate(17.0772,44.1482)"><path
             d="m 0,0 c 2.982,-13.226 3.573,-26.353 -0.334,-39.5 0.62,0.961 1.232,1.937 1.686,2.981 1.937,4.471 2.538,9.21 2.657,14.025 C 4.174,-15.767 3.08,-9.215 1.121,-2.798 0.829,-1.84 0.377,-0.932 0,0 m -4.162,-39.801 c -4.047,13.607 -3.234,27.086 0.091,40.601 -0.298,-0.525 -0.596,-1.064 -0.81,-1.634 -2.884,-7.666 -3.925,-15.61 -3.516,-23.759 0.185,-3.685 0.737,-7.322 2.082,-10.778 0.593,-1.525 1.428,-2.956 2.153,-4.43 m 1.745,0.291 c 1.95,3.69 1.702,38.203 -0.086,40.329 -1.296,-13.565 -1.382,-26.948 0.086,-40.329 m -11.971,14.004 c 0.392,9.937 3.606,18.925 9.544,26.953 0.475,0.642 0.945,1.29 1.464,1.895 0.916,1.067 1.441,1.146 2.271,-0.018 1.896,-2.657 3.891,-5.288 5.42,-8.156 3.818,-7.16 5.915,-14.816 5.445,-23.001 -0.214,-3.744 -1.054,-7.355 -3.647,-10.309 -1.669,-1.9 -3.811,-2.799 -6.258,-3.191 -4.719,-0.757 -9.292,0.991 -11.416,4.403 -1.533,2.461 -2.306,5.163 -2.608,8.015 -0.118,1.112 -0.143,2.233 -0.215,3.409"
             style="fill:#000000;fill-opacity:1;fill-rule:nonzero;stroke:none"
             id="path26" /></g></g></g></g></svg>
